<svg width="457" height="280" viewBox="0 0 457 280" fill="none" xmlns="http://www.w3.org/2000/svg">
<path fill-rule="evenodd" clip-rule="evenodd" d="M4 -10H172V181H4V-10Z" fill="#4AF6CD"/>
<path d="M64.22 145.36C64.22 142.2 64.68 139.42 65.6 137.02C66.52 134.58 67.9 132.4 69.74 130.48L75.62 135.46C73.34 138.34 72.2 141.36 72.2 144.52C72.2 146.16 72.52 147.42 73.16 148.3C73.76 149.14 74.62 149.56 75.74 149.56C76.54 149.56 77.2 149.34 77.72 148.9C78.24 148.46 78.74 147.72 79.22 146.68C79.7 145.64 80.3 144 81.02 141.76C82.38 137.48 84.1 134.36 86.18 132.4C88.22 130.4 91.06 129.4 94.7 129.4C97.34 129.4 99.68 130.08 101.72 131.44C103.72 132.8 105.28 134.78 106.4 137.38C107.52 139.94 108.08 142.96 108.08 146.44C108.08 153.08 106.06 158.5 102.02 162.7L95.96 157.24C98.68 153.92 100.04 150.46 100.04 146.86C100.04 144.98 99.64 143.52 98.84 142.48C98 141.44 96.9 140.92 95.54 140.92C94.58 140.92 93.8 141.12 93.2 141.52C92.56 141.92 92 142.64 91.52 143.68C91 144.68 90.44 146.16 89.84 148.12C88.36 152.84 86.58 156.16 84.5 158.08C82.42 160 79.8 160.96 76.64 160.96C74.16 160.96 71.98 160.3 70.1 158.98C68.22 157.62 66.78 155.76 65.78 153.4C64.74 151 64.22 148.32 64.22 145.36ZM93.02 91.9553C95.9 91.9553 98.48 92.5953 100.76 93.8753C103.04 95.1153 104.84 96.9953 106.16 99.5153C107.44 102.035 108.08 105.115 108.08 108.755C108.08 114.275 106.74 118.455 104.06 121.295C101.34 124.135 97.66 125.555 93.02 125.555H65.3V114.455H92.66C95.18 114.455 97.04 114.015 98.24 113.135C99.4 112.215 99.98 110.755 99.98 108.755C99.98 106.755 99.38 105.315 98.18 104.435C96.98 103.555 95.14 103.115 92.66 103.115H65.3V91.9553H93.02ZM91.64 71.9477V75.0077H107V86.1077H65.3V71.6477C65.3 65.7677 66.36 61.3877 68.48 58.5077C70.6 55.5877 73.86 54.1277 78.26 54.1277C80.9 54.1277 83.1 54.7477 84.86 55.9877C86.62 57.1877 88.2 59.1277 89.6 61.8077L107 51.4277V63.7877L91.64 71.9477ZM84.08 75.0077V71.2877C84.08 67.4477 82.14 65.5277 78.26 65.5277C76.46 65.5277 75.14 66.0677 74.3 67.1477C73.46 68.1877 73.04 69.7677 73.04 71.8877V75.0077H84.08ZM107 48.9006H65.3L65.3 23.2806L73.16 24.4206V37.8006H83.18V26.0406H91.04V37.8006H107V48.9006Z" fill="white"/>
<path d="M64.22 257.92C64.22 252.36 65.98 247.58 69.5 243.58L75.2 249.04C74.12 250.56 73.34 251.94 72.86 253.18C72.34 254.38 72.08 255.76 72.08 257.32C72.08 260.32 73.24 262.68 75.56 264.4C77.88 266.08 81.42 266.92 86.18 266.92C89.66 266.92 92.42 266.64 94.46 266.08C96.46 265.52 97.9 264.68 98.78 263.56C99.66 262.4 100.1 260.92 100.1 259.12C100.1 257.32 99.72 255.68 98.96 254.2H90.38V258.94L82.76 260.02V243.46H103.52C104.96 245.62 106.08 248.06 106.88 250.78C107.68 253.5 108.08 256.18 108.08 258.82C108.08 271.86 100.76 278.38 86.12 278.38C81.56 278.38 77.64 277.5 74.36 275.74C71.04 273.94 68.52 271.5 66.8 268.42C65.08 265.34 64.22 261.84 64.22 257.92ZM64.22 220.335C64.22 214.295 66.14 209.595 69.98 206.235C73.82 202.875 79.2 201.195 86.12 201.195C90.64 201.195 94.56 201.955 97.88 203.475C101.16 204.955 103.68 207.135 105.44 210.015C107.2 212.895 108.08 216.335 108.08 220.335C108.08 226.375 106.16 231.075 102.32 234.435C98.48 237.755 93.08 239.415 86.12 239.415C81.6 239.415 77.7 238.675 74.42 237.195C71.14 235.675 68.62 233.495 66.86 230.655C65.1 227.775 64.22 224.335 64.22 220.335ZM72.2 220.335C72.2 222.935 73.28 224.855 75.44 226.095C77.6 227.295 81.16 227.895 86.12 227.895C91.08 227.895 94.66 227.275 96.86 226.035C99.02 224.795 100.1 222.895 100.1 220.335C100.1 217.695 99.02 215.775 96.86 214.575C94.7 213.375 91.12 212.775 86.12 212.775C81.16 212.775 77.6 213.375 75.44 214.575C73.28 215.775 72.2 217.695 72.2 220.335Z" fill="white"/>
<rect x="87" y="191" width="20" height="1" transform="rotate(-90 87 191)" fill="white"/>
</svg>
